<svg xmlns="http://www.w3.org/2000/svg" width="960" height="960" viewBox="0 0 720 720">
  <path fill="#A0ffff" d="M109.54 36.83c7.11-1.09 14.33-.79 21.5-.83h463.99c24.26-.69 48.48 10.35 63.76 29.22 11.73 14.13 18.26 32.41 18.2 50.77.02 160.67 0 321.34.01 482.01.41 23.2-9.94 46.28-27.56 61.39-14.34 12.57-33.32 19.66-52.39 19.6-158.68.01-317.36.01-476.04 0-18.15.07-36.21-6.32-50.29-17.77-18.58-14.85-29.86-38.33-29.71-62.13-.02-160.7 0-321.4-.01-482.1-.26-18.46 6.09-36.92 17.77-51.23 12.48-15.58 31-26.16 50.77-28.93M81.28 78.25c-9.61 10.04-15.18 23.83-15.1 37.74-.01 123.64 0 247.28 0 370.92.11 19.95-.23 39.92.16 59.86-.39 17.08-.05 34.18-.17 51.28-.22 12.31 3.84 24.66 11.41 34.38 9.95 13.05 26 21.23 42.43 21.37 25.99 0 51.98-.02 77.97.01.04-20.6.01-41.19.01-61.78.02-61.68.01-123.35.01-185.03-10.24-.26-21.08 1.26-30.61-3.39-5.8-2.61-11.48-7.79-11.39-14.62-.01-109.26.01-218.53-.01-327.79-11.99.01-23.99-.01-35.98.01-14.51.14-28.78 6.51-38.73 17.04M258.01 61.2c-.03 109.26.01 218.53-.02 327.79.11 7.1-5.98 12.34-12.01 14.91-8.45 3.93-17.94 3-26.98 3.1 0 61.68-.01 123.35.01 185.03-.01 20.59-.03 41.18.01 61.77 35.87-.08 71.76.15 107.63-.12 7.7.24 15.41-.08 23.11-.19l.29-.69c-.13-20.25 0-40.51-.06-60.77.02-61.67.01-123.35.01-185.03-10.01-.27-20.57 1.22-29.97-3.1-6.03-2.56-12.08-7.78-12.03-14.85-.01-109.29.02-218.57-.01-327.85h-49.98m152 0c-.03 109.26.01 218.53-.02 327.79.15 5.99-4.4 10.86-9.35 13.58-8.96 5.28-19.66 4.42-29.64 4.43 0 61.68-.01 123.36.01 185.03 0 20.57-.05 41.15.02 61.72 7.33.01 14.69.35 21.98-.54 6.62.93 13.32.48 19.99.59 29.99.01 59.98-.02 89.97.01.06-20.59.02-41.19.02-61.78.02-61.68.01-123.35.01-185.03-9.34-.16-19.15.96-27.9-3.07-6.06-2.56-12.17-7.8-12.1-14.91-.01-109.28.02-218.55-.01-327.82-17.66.01-35.32 0-52.98 0m155 0c-.02 107.61 0 215.22-.01 322.83-.09 3.51.46 7.28-1.26 10.51-2.69 5.43-8.29 8.68-13.84 10.54-8.34 2.82-17.26 1.68-25.9 1.92 0 61.68-.01 123.35.01 185.03-.01 20.59-.03 41.18 0 61.77 25.01-.02 50.02.03 75.03-.03 22.12-.48 42.79-15.93 49.78-36.88 4.09-10.86 2.81-22.59 3-33.93-.11-12.07.22-24.14-.16-36.2.39-26.25.05-52.55.16-78.82V129.99c-.12-10.33.85-20.98-2.68-30.92-6.6-21.08-26.99-36.88-49.09-37.8-11.68-.16-23.36-.02-35.04-.07z"/>
  <path fill="none" d="M81.28 78.25c9.95-10.53 24.22-16.9 38.73-17.04 11.99-.02 23.99 0 35.98-.01.02 109.26 0 218.53.01 327.79-.09 6.83 5.59 12.01 11.39 14.62 9.53 4.65 20.37 3.13 30.61 3.39 0 61.68.01 123.35-.01 185.03-16.66-.07-33.32-.01-49.99-.03-8.01-.06-16.09.34-24.02-1.01-18.98-2.95-36.9-13.14-48.5-28.54-3.75-4.79-6.45-10.26-9.14-15.68-.39-19.94-.05-39.91-.16-59.86 0-123.64-.01-247.28 0-370.92-.08-13.91 5.49-27.7 15.1-37.74zM258.01 61.2h49.98c.03 109.28 0 218.56.01 327.85-.05 7.07 6 12.29 12.03 14.85 9.4 4.32 19.96 2.83 29.97 3.1 0 61.68.01 123.36-.01 185.03-43.66-.06-87.32-.05-130.98 0-.02-61.68-.01-123.35-.01-185.03 9.04-.1 18.53.83 26.98-3.1 6.03-2.57 12.12-7.81 12.01-14.91.03-109.26-.01-218.53.02-327.79zm152 0c17.66 0 35.32.01 52.98 0 .03 109.27 0 218.54.01 327.82-.07 7.11 6.04 12.35 12.1 14.91 8.75 4.03 18.56 2.91 27.9 3.07 0 61.68.01 123.35-.01 185.03-43.99-.04-87.99-.06-131.98 0-.02-61.67-.01-123.35-.01-185.03 9.98-.01 20.68.85 29.64-4.43 4.95-2.72 9.5-7.59 9.35-13.58.03-109.26-.01-218.53.02-327.79zm155 0c11.68.05 23.36-.09 35.04.07 22.1.92 42.49 16.72 49.09 37.8 3.53 9.94 2.56 20.59 2.68 30.92v337.95c-.11 26.27.23 52.57-.16 78.82-5.62 12.72-14.5 24.04-26.11 31.79-10.29 7.03-22.33 11.42-34.69 12.88-6.26.77-12.57.54-18.86.57-16 .02-31.99-.04-47.99.03-.02-61.68-.01-123.35-.01-185.03 8.64-.24 17.56.9 25.9-1.92 5.55-1.86 11.15-5.11 13.84-10.54 1.72-3.23 1.17-7 1.26-10.51.01-107.61-.01-215.22.01-322.83z"/>
</svg>
