<svg id="sawtooth" xmlns="http://www.w3.org/2000/svg" viewBox="0 0 668 503">
	<style>
		.st0 {
			fill: none;
			stroke: #C0FFFF;
			stroke-linecap: round;
			stroke-linejoin: round;
			stroke-width: 50;
		}
	</style>
	<path class="st0" d="M5,236c24-17,46-35,71-53c20-16,38-30,58-44c7-5,12-10,19-15c5-3,9-7,14-10c9-6,15-12,23-18c11-8,22-15,33-25 c4-3,8-5,12-8c18-14,35-26,53-40c5-4,9-8,14-12c3-2,6-5,9-6c0,4.1-0.1,0.1,0,0c0,154,0,308,0,462c1.4-1.1,0-0.2,0,0 c28-22,55-42,84-64c77-58,149-112,223.3-167.9"/>
</svg>