<svg xmlns="http://www.w3.org/2000/svg" viewBox="0 0 1000 1000">
  <path fill="#A0ffff" d="M456.1 21.25c-92.72 8.24-182 43.68-258.82 102.88-37.36 28.74-85.63 82.57-113.8 126.82-12.07 18.77-35.44 66.86-44.25 90.81C16.82 402.29 6.47 476.43 11.07 540.8c2.49 36.4 6.13 58.05 14.75 92.53 8.81 34.1 17.43 57.28 35.44 93.68 25.29 51.34 53.26 90.42 94.06 130.66 54.22 53.45 110.73 88.7 185.64 115.52l20.69 7.47 7.28-13.79c17.62-34.1 46.74-67.63 70.31-81.61 21.84-12.83 34.1-16.28 59.77-16.28s37.93 3.45 59.77 16.28c23.56 13.99 54.79 50.58 71.27 83.53 6.71 13.6 3.25 13.41 36.59 1.72 28.55-10.15 77.59-34.67 103.45-51.92 55.94-37.17 104.03-85.64 140.42-140.81 15.33-23.37 40.23-73.18 50.19-100.38 22.22-60.73 32.95-135.83 28.16-199.81-9-125.1-60.73-235.45-150.58-321.85C736.57 57.84 596.91 8.79 456.1 21.25zm101.92 41.18c98.85 11.69 192.34 58.81 264.95 133.15 70.69 72.8 113.22 161.88 125.29 263.23 3.26 26.05 2.68 80.46-.96 109.2-20.3 157.08-122.99 293.1-268.59 355.56-21.46 9.2-22.61 9.58-25.1 6.13-33.91-48.66-56.51-69.73-93.11-86.78-23.18-10.92-40.8-14.18-68.97-12.84-16.48.57-26.82 2.11-35.63 5.17-40.61 13.41-75.48 41.19-102.69 81.8l-10.54 15.52-14.75-5.94c-36.59-14.94-76.82-38.51-110.16-65.14C127.93 790.04 67.78 683.14 52.64 568c-3.64-27.01-4.21-83.91-1.15-109.2 9.96-81.23 39.08-154.6 87.17-218.97 18.97-25.48 64.94-71.84 89.27-90.04 38.51-28.74 79.31-50.58 121.27-65.33 69.74-24.32 132.96-31.03 208.82-22.03z"/>
  <path fill="#A0ffff" d="M471.24 124.89c-28.35 9.96-48.85 32.57-56.51 62.26-15.53 59.39 37.35 117.44 98.27 107.86 75.67-11.88 101.15-107.28 41.57-155.75-16.09-12.84-28.35-17.05-51.73-18.01-16.28-.58-21.07 0-31.6 3.64zm50.96 39.46c9 4.6 19.35 15.52 22.8 24.14 8.24 19.92 4.21 38.89-11.11 53.83-13.99 13.6-30.84 17.82-49.62 12.07-8.62-2.49-23.37-14.75-27.4-22.61-13.98-27.01-1.34-59.58 27.01-70.12 9.96-3.63 28.35-2.48 38.32 2.69zm-256.91 45.79c-32.38 11.5-52.68 34.87-59.58 68.2-8.43 39.85 15.33 82.95 53.45 97.51 24.14 9.2 48.28 8.04 71.65-3.45 17.82-8.62 31.04-22.03 40.23-40.61 6.32-12.64 7.28-16.28 7.85-31.99 1.73-38.51-16.86-69.73-50.77-85.83-11.69-5.37-15.13-6.13-33.14-6.51-15.51-.58-22.22.19-29.69 2.68zM313 249.99c30.27 14.56 37.17 54.98 13.6 78.74-17.63 17.43-47.13 18.58-66.48 2.68-3.83-3.26-9.2-10.15-11.88-15.71-12.84-25.67-.38-57.66 26.63-67.63 9.96-3.64 28.55-2.68 38.13 1.92zm368.01-39.85c-14.75 5.36-25.86 12.64-36.78 23.95-17.63 18.77-24.52 37.93-23.18 65.71.57 15.71 1.53 19.35 7.85 32.18 15.71 31.8 43.87 49.62 78.93 49.81 49.04.38 88.12-38.7 87.74-87.74-.19-35.25-18.01-63.22-50-78.93-13.6-6.9-15.71-7.28-34.68-7.85-15.7-.39-22.4.38-29.88 2.87zm43.3 37.93c42.91 14.75 42.91 77.21 0 91.96-32.18 10.92-65.33-12.26-65.33-45.98 0-33.33 33.34-56.9 65.33-45.98zm-536.6 167.82c-14.18 2.68-32.76 13.03-44.25 24.52-32.95 32.95-34.1 87.17-2.68 120.69 40.23 43.1 107.28 37.36 139.08-11.69 9.96-15.52 13.98-31.61 12.83-52.68-.57-14.75-1.72-19.16-7.85-31.99-17.63-36.97-56.71-56.7-97.13-48.85zm39.27 42.72c16.09 7.47 25.67 21.27 27.2 39.85 1.92 19.35-9 38.5-27.01 48.08-10.92 5.75-31.61 5.75-42.53 0-36.78-19.54-36.78-70.12.19-88.51 11.11-5.55 29.7-5.36 42.15.58zm546.56-41.76c-67.43 16.28-90.04 102.87-39.08 149.81 29.31 27.01 73.37 31.23 106.33 10.16 47.7-30.65 55.17-96.75 15.71-136.4-22.23-22.23-53.07-30.85-82.96-23.57zm39.28 40.04c22.99 9.58 35.25 36.21 27.78 60.73-2.87 9.58-14.94 23.37-25.29 28.93-10.92 5.75-31.61 5.75-42.53 0-36.4-19.16-36.4-71.07.19-87.93 11.3-5.37 29.31-6.14 39.85-1.73z"/>
</svg>
