<svg id="sine" xmlns="http://www.w3.org/2000/svg" viewBox="0 0 665 509">
	<style>
		.st0 {
			fill: none;
			stroke: #C0FFFF;
			stroke-linecap: round;
			stroke-linejoin: round;
			stroke-width: 50;
		}
	</style>
	<path class="st0" d="M10,241.1c11-26,22-51,32-77c9-23,22-43,31-65c5-12,14-21,20-33c2-3,4-5,6-7c16-25,37-51,67-49 c27,1,44,23,60,45c20,29,34,57,47,87c28,61,53,121,78,182c1,1,2,3,3,4c18,41,37,80,66,115c1,1,1,3,2,4c6,5,11,11,18,16 c13,8,27,12,41,8c30-9,45-38,62-61c24-44,45-89,64-135c5-10,9-21,13.9-31.5"/>
</svg>