<svg xmlns="http://www.w3.org/2000/svg" id="Слой_1" viewBox="0 0 441 298">
  <path fill="#A0FFFF" d="M220.2 298c-40.3 0-79.6-12.2-116.8-36.2-38.1-24.6-72.3-60.7-101.6-107.2-2.2-3-2.4-7.4-.3-10.8C30.8 97.1 65.1 60.9 103.3 36.2 140.5 12.2 179.8 0 220.1 0h.1c40.4 0 79.6 12.2 116.8 36.2 38.2 24.6 72.4 60.8 101.7 107.5.9 1.5 1.5 3.4 1.5 5.2v.1c0 1.8-.5 3.7-1.5 5.2-29.3 46.7-63.5 82.9-101.6 107.5-37.2 24.1-76.5 36.3-116.9 36.3zM17.8 148.9c54.8 84.7 126.5 131.2 202.4 131.2h.1c75.9 0 147.4-46.5 202.1-131.1C367.7 64.4 296.1 17.9 220.2 17.9h-.1c-75.9 0-147.5 46.5-202.3 131z" />
  <path fill="#A0FFFF" d="M219.9 253.7c-51.6 0-93.5-46.9-93.5-104.7s41.9-104.7 93.5-104.7 93.5 46.9 93.5 104.7-41.9 104.7-93.5 104.7zm0-191.5c-42.7 0-77.5 39-77.5 86.8s34.8 86.8 77.5 86.8 77.5-39 77.5-86.8-34.8-86.8-77.5-86.8z" />
  <path fill="#A0FFFF" d="M263.4 156.3c-4.4 0-8-4-8-9 0-21.6-15.7-39.2-35-39.2-4.4 0-8-4-8-9 0-4.9 3.6-9 8-9 28.1 0 51 25.7 51 57.1 0 5-3.6 9.1-8 9.1z" />
</svg>
